<?xml version="1.0" standalone="no"?><!DOCTYPE svg PUBLIC "-//W3C//DTD SVG 1.1//EN" "http://www.w3.org/Graphics/SVG/1.1/DTD/svg11.dtd"><svg t="1535867556252" class="icon" style="" viewBox="0 0 1024 1024" version="1.1" xmlns="http://www.w3.org/2000/svg" p-id="2509" xmlns:xlink="http://www.w3.org/1999/xlink" width="32" height="32"><defs><style type="text/css"></style></defs><path d="M512.67794 65.291029C265.701966 65.004503 66.200236 263.518742 65.293587 510.472204c-0.916882 247.286036 198.739367 447.915449 446.048939 448.236767 247.38632 0.322341 447.196065-199.272509 447.366957-446.883957C958.882422 265.25734 759.426741 65.579601 512.67794 65.291029zM772.621251 544.93204c-0.64059 26.420743-15.491833 41.562605-41.989323 41.606607-47.989991 0.080841-95.982028 0.124843-143.972019 0.151449 0.01228 45.808302 0.017396 91.615581-0.026606 137.418766-0.033769 35.107589-13.380752 48.577369-48.030923 48.683792-19.839861 0.061398-39.694047 0.370437-59.528791-0.11154-26.414603-0.642636-41.552371-15.495926-41.596374-41.999556-0.079818-47.998177-0.12382-95.996354-0.150426-143.993508-47.941895-0.027629-95.882767-0.072655-143.826709-0.154519-26.546609-0.044002-41.48381-15.205307-42.060955-41.548278-0.478907-21.701255-0.385786-43.417859-0.038886-65.119113 0.438998-27.465538 15.230889-42.333154 42.967604-42.441625 47.653323-0.176009 95.307669-0.155543 142.959969-0.122797 0.027629-47.950082 0.072655-95.89914 0.154519-143.851269 0.041956-26.552749 15.20019-41.49302 41.537022-42.070164 21.694091-0.477884 43.408649-0.385786 65.103764-0.037862 27.460422 0.438998 42.323944 15.233959 42.432415 42.977837 0.176009 47.667649 0.155543 95.335299 0.122797 143.001925 45.796022-0.01228 91.591021-0.017396 137.38295 0.026606 35.100426 0.033769 48.565089 13.382798 48.671513 48.039109C772.796236 505.231853 773.105275 525.093203 772.621251 544.93204z" p-id="2510" fill="#1afa29"></path></svg>