<?xml version="1.0" standalone="no"?><!DOCTYPE svg PUBLIC "-//W3C//DTD SVG 1.1//EN" "http://www.w3.org/Graphics/SVG/1.1/DTD/svg11.dtd"><svg t="1535865371705" class="icon" style="" viewBox="0 0 1088 1024" version="1.1" xmlns="http://www.w3.org/2000/svg" p-id="1056" xmlns:xlink="http://www.w3.org/1999/xlink" width="34" height="32"><defs><style type="text/css"></style></defs><path d="M83.648 383.232 423.424 85.952C449.728 59.712 480.448 55.296 506.752 81.6L506.752 282.048C512.896 281.984 518.272 281.984 521.408 281.984 842.432 281.984 1080.64 510.016 1080.64 820.224 1080.64 928.256 1031.104 888.896 1010.432 851.2 913.024 673.28 741.824 551.872 518.848 551.872 516.224 551.872 511.744 551.936 506.688 551.936L506.688 748.096C480.384 774.336 446.464 771.2 423.36 752.448L83.584 478.336C57.408 452.096 57.408 409.536 83.648 383.232L83.648 383.232Z" p-id="1057"></path></svg>