<?xml version="1.0" standalone="no"?><!DOCTYPE svg PUBLIC "-//W3C//DTD SVG 1.1//EN" "http://www.w3.org/Graphics/SVG/1.1/DTD/svg11.dtd"><svg t="1535866868056" class="icon" style="" viewBox="0 0 1024 1024" version="1.1" xmlns="http://www.w3.org/2000/svg" p-id="2700" xmlns:xlink="http://www.w3.org/1999/xlink" width="32" height="32"><defs><style type="text/css"></style></defs><path d="M895.398771 267.822944 671.950695 267.822944 671.950695 100.238145c0-46.261745-37.501958-83.792903-83.790889-83.792903l-167.583792 0c-46.287924 0-83.79391 37.531157-83.79391 83.792903l0 167.584799-223.445056 0c-61.698102 0-111.723535 50.024426-111.723535 111.723535l0 55.860257c0 41.398553 22.522722 77.540227 55.981082 96.841965 0.190299 56.371748-0.120825 280.654522-0.120825 377.979786 3.818059 112.787799 111.723535 111.723535 111.723535 111.723535l307.238966 0 0-0.872958 20.968111 0c2.225187 0.568883 4.557103 0.872958 6.961514 0.872958s4.736326-0.304075 6.961514-0.872958l181.59341 0c2.225187 0.568883 4.557103 0.872958 6.961514 0.872958s4.735319-0.304075 6.960507-0.872958l132.69366 0c0 0 107.902455 1.066278 111.721521-111.532229 0-97.144027-0.310117-320.985791-0.119818-377.298133 33.45836-19.301738 55.983096-55.443412 55.983096-96.842972L1007.1213 379.546479C1007.122306 317.84737 957.096873 267.822944 895.398771 267.822944zM811.604862 965.328556l-83.790889 0L727.813973 742.644695c0-15.43837-12.494276-27.929625-27.930632-27.929625-15.43837 0-27.932646 12.491255-27.932646 27.929625l0 222.683861-139.65316 0L532.297535 742.644695c0-15.43837-12.491255-27.929625-27.930632-27.929625-15.43837 0-27.929625 12.491255-27.929625 27.929625l0 223.44707c0 0-69.151976 0-139.654167 0L336.783111 742.644695c0-15.43837-12.491255-27.929625-27.930632-27.929625-15.43837 0-27.929625 12.491255-27.929625 27.929625l0 223.44707-83.79391 0c-47.459923 0-84.064758-31.259351-83.790889-83.792903 0.351398-71.180823 0.136935-263.033253 0.040275-335.168591l781.981174 0c-0.097667 72.050761-0.311123 263.506483 0.040275 334.540303C895.670627 934.122569 859.066799 965.328556 811.604862 965.328556zM951.260036 435.406736c0 30.849554-25.01171 55.860257-55.860257 55.860257L113.337047 491.266993c-30.849554 0-55.862271-25.01171-55.862271-55.860257L57.474777 379.546479c0-30.849554 25.013724-55.863278 55.862271-55.863278l279.308334 0 0-167.583792c0-46.259732 37.502965-83.792903 83.790889-83.792903l55.860257 0c46.287924 0 83.792903 37.533171 83.792903 83.792903l0 167.583792 279.308334 0c30.849554 0 55.860257 25.013724 55.860257 55.863278L951.258022 435.406736z" p-id="2701"></path></svg>