<?xml version="1.0" standalone="no"?><!DOCTYPE svg PUBLIC "-//W3C//DTD SVG 1.1//EN" "http://www.w3.org/Graphics/SVG/1.1/DTD/svg11.dtd"><svg t="1535867297240" class="icon" style="" viewBox="0 0 1024 1024" version="1.1" xmlns="http://www.w3.org/2000/svg" p-id="12739" xmlns:xlink="http://www.w3.org/1999/xlink" width="32" height="32"><defs><style type="text/css"></style></defs><path d="M368 64 176 64 80 64c-8.836 0-16 7.164-16 16l0 96 0 192c0 8.836 7.164 16 16 16l96 0c8.836 0 16-7.164 16-16L192 192l176 0c8.836 0 16-7.164 16-16L384 80C384 71.164 376.836 64 368 64z" p-id="12740"></path><path d="M944 64l-96 0L656 64c-8.836 0-16 7.164-16 16l0 96c0 8.836 7.164 16 16 16l176 0 0 176c0 8.836 7.164 16 16 16l96 0c8.836 0 16-7.164 16-16L960 176 960 80C960 71.164 952.836 64 944 64z" p-id="12741"></path><path d="M368 832 192 832 192 656c0-8.836-7.164-16-16-16L80 640c-8.836 0-16 7.164-16 16l0 192 0 96c0 8.836 7.164 16 16 16l96 0 192 0c8.836 0 16-7.164 16-16l0-96C384 839.164 376.836 832 368 832z" p-id="12742"></path><path d="M944 640l-96 0c-8.836 0-16 7.164-16 16l0 176L656 832c-8.836 0-16 7.164-16 16l0 96c0 8.836 7.164 16 16 16l192 0 96 0c8.836 0 16-7.164 16-16l0-96L960 656C960 647.164 952.836 640 944 640z" p-id="12743"></path></svg>