<?xml version="1.0" standalone="no"?><!DOCTYPE svg PUBLIC "-//W3C//DTD SVG 1.1//EN" "http://www.w3.org/Graphics/SVG/1.1/DTD/svg11.dtd"><svg t="1535866160618" class="icon" style="" viewBox="0 0 1088 1024" version="1.1" xmlns="http://www.w3.org/2000/svg" p-id="1056" xmlns:xlink="http://www.w3.org/1999/xlink" width="34" height="32"><defs><style type="text/css"></style></defs><path d="M997.376 383.232 662.016 85.952C636.16 59.712 605.76 55.296 579.904 81.6L579.904 282.048C573.76 281.984 568.512 281.984 565.376 281.984 248.576 281.984 5.376 510.016 5.376 820.224 5.376 928.256 54.4 888.896 74.688 851.2 170.752 673.28 347.776 551.872 567.808 551.872 570.432 551.872 574.848 551.936 579.84 551.936L579.84 748.096C605.696 774.336 639.296 771.2 661.952 752.448L997.312 478.336C1023.232 452.096 1023.232 409.536 997.376 383.232L997.376 383.232Z" p-id="1057"></path></svg>