<?xml version="1.0" standalone="no"?><!DOCTYPE svg PUBLIC "-//W3C//DTD SVG 1.1//EN" "http://www.w3.org/Graphics/SVG/1.1/DTD/svg11.dtd"><svg t="1535867595697" class="icon" style="" viewBox="0 0 1024 1024" version="1.1" xmlns="http://www.w3.org/2000/svg" p-id="2680" xmlns:xlink="http://www.w3.org/1999/xlink" width="32" height="32"><defs><style type="text/css"></style></defs><path d="M512.683057 65.291029c246.799966 0.289596 446.302719 199.967334 446.124663 446.530916-0.169869 247.616564-200.020546 447.209368-447.462125 446.887027C263.978718 958.38663 64.279491 757.754147 65.194326 510.472204 66.103022 263.518742 265.650801 65.00348 512.683057 65.291029L512.683057 65.291029zM511.974929 437.340603c-72.559573 0-145.123238-0.181125-217.688951 0.088004-27.742854 0.107447-42.538839 14.978133-42.97886 42.441625-0.342808 21.700231-0.435928 43.419905 0.042979 65.116043 0.576121 26.342971 15.515369 41.503253 42.070164 41.547255 145.745409 0.249687 291.489794 0.249687 437.232133 0.005117 26.500561-0.044002 41.352827-15.182794 41.996486-41.60456 0.484024-19.839861 0.176009-39.697117 0.112564-59.539025-0.107447-34.659381-13.57518-48.010457-48.683792-48.044226C653.378449 437.282275 582.677201 437.33037 511.974929 437.340603L511.974929 437.340603zM511.974929 437.340603" p-id="2681" fill="#d81e06"></path></svg>