<?xml version="1.0" standalone="no"?><!DOCTYPE svg PUBLIC "-//W3C//DTD SVG 1.1//EN" "http://www.w3.org/Graphics/SVG/1.1/DTD/svg11.dtd"><svg t="1535867425078" class="icon" style="" viewBox="0 0 1024 1024" version="1.1" xmlns="http://www.w3.org/2000/svg" p-id="15699" xmlns:xlink="http://www.w3.org/1999/xlink" width="32" height="32"><defs><style type="text/css"></style></defs><path d="M584.7 768.3L246.2 429.8 577.6 98.5c3.9-3.9 10.2-3.9 14.1 0L916 422.8c3.9 3.9 3.9 10.2 0 14.1L584.7 768.3z" fill="#51B5ED" p-id="15700"></path><path d="M880.8 387.5L821 327.7c23.4 23.4 23.4 61.2 0 84.6L524.9 708.5l59.8 59.8 296.1-296.1c23.4-23.4 23.4-61.3 0-84.7z" fill="#2996D3" p-id="15701"></path><path d="M408.4 896.6L117.9 606.1c-3.9-3.9-3.9-10.2 0-14.1l145.2-145.2 304.6 304.6-145.2 145.2c-3.9 3.9-10.2 3.9-14.1 0z" fill="#E4EFF4" p-id="15702"></path><path d="M263.2 446.8L508 691.6l-110 110c-23.4 23.4-61.2 23.4-84.6 0l59.8 59.8c23.4 23.4 61.2 23.4 84.6 0l110-110-304.6-304.6z" fill="#C1DFEA" p-id="15703"></path><path d="M674.3 263.5m-12 0a12 12 0 1 0 24 0 12 12 0 1 0-24 0Z" fill="#FFFFFF" p-id="15704"></path><path d="M449.3 321.3c-3.1 0-6.1-1.2-8.5-3.5-4.7-4.7-4.7-12.2 0-16.9l135.4-135.4c4.5-4.5 12.4-4.5 16.9 0l50.8 50.8c4.7 4.7 4.7 12.2 0 16.9-4.7 4.7-12.2 4.7-16.9 0l-42.3-42.3-126.9 126.9c-2.4 2.3-5.4 3.5-8.5 3.5z" fill="#FFFFFF" p-id="15705"></path><path d="M567.8 776.8l4.2 4.2c3.5 3.5 8.1 5.3 12.7 5.3s9.2-1.8 12.7-5.3l296.1-296.1c30.3-30.3 30.3-79.7 0-110L639.7 121c-14.7-14.7-34.2-22.8-55-22.8-20.8 0-40.3 8.1-55 22.8L233.6 417.2c-3.4 3.4-5.3 7.9-5.3 12.7 0 4.8 1.9 9.3 5.3 12.7l4.2 4.2-97.3 97.3c-14.7 14.7-22.8 34.2-22.8 55 0 20.8 8.1 40.3 22.8 55l220 220c10.6 10.6 23.7 17.7 37.9 20.8H131.6c-9.9 0-17.9 8-17.9 17.9s8 17.9 17.9 17.9h729.9c9.9 0 17.9-8 17.9-17.9s-8-17.9-17.9-17.9h-429c14.2-3.2 27.3-10.3 37.9-20.8l97.4-97.3z m-12.7-630.4c16.3-16.3 42.9-16.3 59.2 0l253.8 253.8c7.9 7.9 12.3 18.4 12.3 29.6 0 11.2-4.4 21.7-12.3 29.6L584.7 742.9l-4.2-4.2-304.6-304.6-4.2-4.2 283.4-283.5zM415.5 860.9c-11.2 0-21.7-4.4-29.6-12.3l-220-220c-7.9-7.9-12.3-18.4-12.3-29.6 0-11.2 4.4-21.7 12.3-29.6l97.3-97.3 279.2 279.2-97.3 97.3c-7.9 8-18.4 12.3-29.6 12.3z" fill="#2D3742" p-id="15706"></path></svg>