<?xml version="1.0" standalone="no"?><!DOCTYPE svg PUBLIC "-//W3C//DTD SVG 1.1//EN" "http://www.w3.org/Graphics/SVG/1.1/DTD/svg11.dtd"><svg t="1535881353489" class="icon" style="" viewBox="0 0 1024 1024" version="1.1" xmlns="http://www.w3.org/2000/svg" p-id="1466" xmlns:xlink="http://www.w3.org/1999/xlink" width="32" height="32"><defs><style type="text/css"></style></defs><path d="M192 320l64 0L256 256l512 0 0 64 64 0 0 384-64 0 0 64L256 768l0-64L192 704 192 320zM768 128l0 64L256 192 256 128 64 128l0 192 64 0 0 384L64 704l0 192 192 0 0-64 512 0 0 64 192.064 0 0-192L896 704 896 320l64.064 0L960.064 128 768 128z" p-id="1467"></path></svg>