<?xml version="1.0" standalone="no"?><!DOCTYPE svg PUBLIC "-//W3C//DTD SVG 1.1//EN" "http://www.w3.org/Graphics/SVG/1.1/DTD/svg11.dtd"><svg t="1535867042292" class="icon" style="" viewBox="0 0 1024 1024" version="1.1" xmlns="http://www.w3.org/2000/svg" p-id="5016" xmlns:xlink="http://www.w3.org/1999/xlink" width="32" height="32"><defs><style type="text/css"></style></defs><path d="M656.064 447.296c0 17.664-14.4 32-32 32l-96 0 0 96c0 17.6-14.336 32-32 32s-32-14.4-32-32l0-96-96 0c-17.664 0-32-14.336-32-32s14.336-32 32-32l96 0 0-96c0-17.664 14.336-32 32-32s32 14.336 32 32l0 96 96 0C641.664 415.296 656.064 429.632 656.064 447.296zM945.344 950.848c-17.472 14.464-43.84 11.456-58.752-6.656l-182.656-213.248c-58.304 42.816-129.984 68.352-207.808 68.352-194.368 0-352-157.632-352-352s157.632-352 352-352 352 157.632 352 352c0 86.848-31.616 166.272-83.84 227.712l185.664 216.768C964.928 909.952 962.944 936.448 945.344 950.848zM496.064 735.296c158.784 0 288-129.216 288-288s-129.216-288-288-288-288 129.216-288 288S337.28 735.296 496.064 735.296z" p-id="5017"></path></svg>